<?xml version="1.0" encoding="utf-8"?>
<!-- Generate more at customizr.net -->
<!DOCTYPE svg PUBLIC "-//W3C//DTD SVG 1.1//EN" "http://www.w3.org/Graphics/SVG/1.1/DTD/svg11.dtd">
<svg id="facebook" class="custom-icon" version="1.1" xmlns="http://www.w3.org/2000/svg"
viewBox="0 0 100 100">
<circle class="outer-shape" cx="50" cy="50" r="48" style="opacity: 1; fill: rgb(3, 153, 255);"></circle>
<path class="inner-shape" style="opacity:1;fill:#f7f7f7;" transform="translate(27,27) scale(.8)"
	d="M50,0H3.2A3.2,3.2,0,0,0,0,3.2V54.8A3.2,3.2,0,0,0,3.2,58H31V35.57H23.45V26.79H31V20.33c0-7.49,4.58-11.57,11.26-11.57A64.2,64.2,0,0,1,49,9.1v7.83h-4.6c-3.64,0-4.35,1.72-4.35,4.26v5.59h8.7l-1.13,8.78H40V58H54.8A3.2,3.2,0,0,0,58,54.8V3.2A3.2,3.2,0,0,0,54.8,0Z"/>
</svg>